# File created by Blade
# Date/Time:  Mon Nov 18 18:33:23 2013
# Frame Rate: 100.000 fps
#------------------------------------------------------
:FULLY-SPECIFIED
:DEGREES
151
root 53.524679 -2.121179 51.214272 -2.353881 1.614470 -122.669062
Spine 11.700153 -1.625569 -0.509694
Spine1 3.082661 0.966967 -1.515810
Spine2 0.735872 -2.192197 -2.054215
NeckDummy 0.003245 -0.061117 -0.021388 -1.347753 1.719543 -0.708027
Neck 16.649534 0.535138 25.825103
Head -0.265564 0.339508 0.241653 -35.106849 -3.741517 -0.444847
LeftShoulderDummy -0.067794 -0.052995 0.021832 -1.322882 1.595873 -0.485464
LeftShoulder 7.667365 -3.912239 14.072739
LeftArm 19.034591 48.241447 27.609538
LeftForeArm 89.318878
LeftForeArmRoll -34.777370
LeftHand -9.309332 5.441443 -4.411299
LeftHandThumb1 16.460243 12.656357
LeftHandIndex1 14.851524 43.605588
LeftHandPinky1 14.091021 48.552693
RightShoulderDummy -0.045206 -0.028942 0.064901 -1.371385 -1.710101 0.689657
RightShoulder 5.016564 5.726471 17.460240
RightArm -36.884222 71.156627 -1.495714
RightForeArm 113.693801
RightForeArmRoll 5.535767
RightHand -17.640931 -16.410287 11.484178
RightHandThumb1 -0.885289 13.320076
RightHandIndex1 13.618833 60.071764
RightHandPinky1 18.347231 68.238701
LeftUpLeg 5.180494 19.988037 -29.650402
LeftLeg 47.363768
LeftFoot 0.569913 -1.046620 -0.691309 -13.211760 9.186386 -8.705094
LeftToeBase -1.380673
RightUpLeg 14.826205 12.201956 -21.446809
RightLeg 57.173992
RightFoot -0.409325 0.451098 0.221707 -0.242167 6.321130 -29.618475
RightToeBase -1.194564
152
root 53.510943 -2.129044 51.236754 -2.362904 1.606595 -122.761451
Spine 11.714655 -1.614721 -0.503000
Spine1 3.086965 0.974000 -1.493006
Spine2 0.740902 -2.192224 -2.045497
NeckDummy 0.003232 -0.063349 -0.021512 -1.356725 1.711573 -0.706891
Neck 16.666440 0.531238 25.885278
Head -0.268145 0.340629 0.239576 -35.077428 -3.752476 -0.464780
LeftShoulderDummy -0.067850 -0.055447 0.022064 -1.332248 1.588002 -0.484536
LeftShoulder 7.626498 -3.886834 14.082894
LeftArm 19.049442 48.248295 27.609290
LeftForeArm 89.343515
LeftForeArmRoll -34.795629
LeftHand -9.278606 5.511773 -4.416982
LeftHandThumb1 16.559174 12.707116
LeftHandIndex1 14.846879 43.680713
LeftHandPinky1 14.094940 48.515837
RightShoulderDummy -0.045353 -0.031258 0.064858 -1.380740 -1.701569 0.688113
RightShoulder 4.908931 5.804910 17.412574
RightArm -36.429365 71.407286 -1.070738
RightForeArm 113.725294
RightForeArmRoll 5.536404
RightHand -17.566517 -16.419179 11.422039
RightHandThumb1 -0.845799 13.338330
RightHandIndex1 13.477431 59.907380
RightHandPinky1 18.760649 69.074818
LeftUpLeg 5.203377 19.976399 -29.627372
LeftLeg 47.426368
LeftFoot 0.563379 -1.042353 -0.689732 -13.072405 9.280040 -8.773844
LeftToeBase -1.480969
RightUpLeg 14.738101 12.221956 -21.481458
RightLeg 57.209212
RightFoot -0.410523 0.453987 0.224191 -0.345580 6.274621 -29.649790
RightToeBase -1.165439
153
root 53.502158 -2.135893 51.258087 -2.365224 1.598658 -122.904687
Spine 11.698488 -1.592838 -0.512178
Spine1 3.105132 0.985967 -1.514812
Spine2 0.786062 -2.269225 -1.928129
NeckDummy 0.002568 -0.063000 -0.022670 -1.331562 1.632199 -0.710398
Neck 16.601320 0.540131 25.984293
Head -0.270516 0.341477 0.237165 -35.042586 -3.763966 -0.473363
LeftShoulderDummy -0.068866 -0.055353 0.021438 -1.307345 1.508237 -0.487638
LeftShoulder 7.518676 -3.879193 14.090415
LeftArm 19.075872 48.215292 27.524487
LeftForeArm 89.379752
LeftForeArmRoll -34.782002
LeftHand -9.305297 5.613618 -4.394913
LeftHandThumb1 16.678030 12.774841
LeftHandIndex1 14.825341 43.766898
LeftHandPinky1 14.052413 48.571967
RightShoulderDummy -0.045778 -0.031125 0.061155 -1.355372 -1.623050 0.693817
RightShoulder 4.772683 5.768762 17.307787
RightArm -35.969281 71.588773 -0.584059
RightForeArm 113.719488
RightForeArmRoll 5.600819
RightHand -17.609372 -16.379363 11.305354
RightHandThumb1 -1.154866 13.264277
RightHandIndex1 13.737579 59.595107
RightHandPinky1 19.016673 68.806278
LeftUpLeg 5.302032 20.020259 -29.619799
LeftLeg 47.510847
LeftFoot 0.562636 -1.042212 -0.693235 -13.050078 9.333919 -8.826463
LeftToeBase -1.482994
RightUpLeg 14.649407 12.238176 -21.530733
RightLeg 57.233580
RightFoot -0.413840 0.454983 0.227231 -0.433938 6.213330 -29.646073
RightToeBase -1.127867
154
root 53.493753 -2.140911 51.285567 -2.344369 1.602381 -123.022610
Spine 11.711918 -1.580566 -0.501093
Spine1 3.104995 0.992723 -1.483436
Spine2 0.755204 -2.279047 -1.897513
NeckDummy 0.002306 -0.064753 -0.021563 -1.330763 1.609732 -0.706539
Neck 16.636106 0.537570 26.056014
Head -0.272218 0.342403 0.236328 -35.023003 -3.787507 -0.508460
LeftShoulderDummy -0.067878 -0.056897 0.022964 -1.306378 1.486959 -0.488226
LeftShoulder 7.643461 -3.882043 14.124536
LeftArm 19.312502 48.133644 27.719988
LeftForeArm 89.383972
LeftForeArmRoll -34.793315
LeftHand -9.306354 5.741193 -4.437195
LeftHandThumb1 16.745929 12.820499
LeftHandIndex1 14.901340 43.570866
LeftHandPinky1 14.030000 48.530058
RightShoulderDummy -0.046306 -0.032954 0.061489 -1.355153 -1.599151 0.688500
RightShoulder 4.711690 5.854726 17.300798
RightArm -35.222402 71.842355 0.169286
RightForeArm 113.671450
RightForeArmRoll 5.931283
RightHand -17.672319 -16.232073 11.484793
RightHandThumb1 -1.031548 13.221134
RightHandIndex1 13.455857 59.728119
RightHandPinky1 18.553573 68.451075
LeftUpLeg 5.359946 20.015318 -29.660360
LeftLeg 47.631569
LeftFoot 0.567721 -1.042924 -0.687528 -13.100846 9.405676 -8.898854
LeftToeBase -1.430201
RightUpLeg 14.531395 12.263154 -21.608263
RightLeg 57.257100
RightFoot -0.418385 0.452175 0.227362 -0.657804 6.202290 -29.647240
RightToeBase -1.129946
155
root 53.488745 -2.146617 51.315749 -2.350129 1.607499 -123.110728
Spine 11.782883 -1.584391 -0.475825
Spine1 3.109286 0.996453 -1.425082
Spine2 0.690702 -2.212622 -2.026506
NeckDummy 0.002766 -0.063421 -0.019714 -1.339216 1.698086 -0.702164
Neck 16.685072 0.476715 26.087717
Head -0.269854 0.344109 0.234869 -35.017505 -3.771189 -0.472225
LeftShoulderDummy -0.067789 -0.055539 0.023836 -1.313946 1.573442 -0.480330
LeftShoulder 7.632937 -3.955405 14.073039
LeftArm 19.306659 48.113892 27.654673
LeftForeArm 89.398692
LeftForeArmRoll -34.823582
LeftHand -9.327138 5.838845 -4.465505
LeftHandThumb1 16.689611 12.841071
LeftHandIndex1 14.891306 43.595601
LeftHandPinky1 14.085366 48.401459
RightShoulderDummy -0.045515 -0.031739 0.065251 -1.364063 -1.686934 0.684216
RightShoulder 4.553316 5.935066 17.263213
RightArm -34.993276 71.997913 0.361112
RightForeArm 113.688219
RightForeArmRoll 6.077983
RightHand -17.837348 -15.860303 11.425359
RightHandThumb1 -1.196042 13.045786
RightHandIndex1 13.303131 58.460055
RightHandPinky1 18.741669 68.202191
LeftUpLeg 5.363899 19.987894 -29.703042
LeftLeg 47.753605
LeftFoot 0.566655 -1.045193 -0.686052 -13.049271 9.472310 -8.913991
LeftToeBase -1.545813
RightUpLeg 14.467073 12.314917 -21.665596
RightLeg 57.299669
RightFoot -0.420374 0.453338 0.228572 -0.700878 6.142103 -29.639167
RightToeBase -1.146394
